<svg
  width="210mm"
  height="297mm"
  viewBox="0 0 210 297"
  xmlns="http://www.w3.org/2000/svg"
>
  <g transform="matrix(0.42799407,0,0,0.42799407,5.6078797,48.371809)">
    <path
      d="m 391.016,135.059 c -5.829,-49.336 -47.791,-87.605 -98.695,-87.605 -33.184,0 -62.556,16.272 -80.607,41.262 2.108,-0.081 4.223,-0.127 6.349,-0.127 74.519,0 138.462,50.218 157.487,120.164 21.304,4.704 40.866,15.374 56.667,31.173 1.403,1.403 2.764,2.836 4.085,4.297 C 447.852,232.648 455,216.682 455,199.04 c 0,-35.336 -28.648,-63.981 -63.984,-63.981 z"
      style="fill:#000000;"
    />
    <path
      d="M 350.359,236.02 C 342.545,169.887 286.297,118.589 218.063,118.589 149.829,118.589 93.581,169.887 85.767,236.02 38.402,236.02 0,274.417 0,321.783 c 0,47.366 38.397,85.763 85.763,85.763 h 264.601 c 47.366,0 85.763,-38.397 85.763,-85.763 0,-47.366 -38.402,-85.763 -85.768,-85.763 z"
      style="fill:#000000;"
    />
  </g>
  <circle
    cx="105.44052"
    cy="154.02045"
    r="91.087357"
    style="fill:#ff0000;fill-opacity:0;stroke:#ff0600;stroke-width:8;stroke-opacity:0.957;"
  />
</svg>
