<svg
  width="210mm"
  height="297mm"
  viewBox="0 0 210 297"
  xmlns="http://www.w3.org/2000/svg"
>
  <g transform="matrix(0.41341146,0,0,0.41341146,-1.0585398,42.597916)">
    <path
      d="m 379.408,223.71 c 0.74,-2.408 1.259,-4.916 1.259,-7.574 0,-4.918 -1.445,-9.463 -3.816,-13.39 10.52,-19.436 16.631,-41.642 16.631,-65.264 C 393.464,61.551 331.931,0.008 255.991,0 180.059,0.008 118.518,61.551 118.518,137.482 c -0.01,23.78 6.167,46.124 16.835,65.653 -2.232,3.834 -3.602,8.241 -3.602,13.001 0,2.537 0.472,4.945 1.158,7.26 -29.391,30.595 -47.587,72.117 -47.578,117.934 0,94.266 76.394,170.662 170.66,170.67 94.266,-0.008 170.661,-76.404 170.679,-170.67 0,-45.651 -18.057,-87.044 -47.262,-117.62 z M 178.893,60.384 c 19.779,-19.761 46.947,-31.928 77.098,-31.937 30.16,0.009 57.328,12.176 77.098,31.937 19.761,19.78 31.928,46.948 31.946,77.098 0,19.122 -4.982,36.984 -13.63,52.578 h -190.81 c -8.649,-15.594 -13.631,-33.456 -13.631,-52.578 0,-30.15 12.177,-57.319 31.929,-77.098 z m 177.67,381.51 c -25.789,25.761 -61.255,41.651 -100.573,41.66 -39.317,-0.009 -74.783,-15.899 -100.562,-41.66 -25.761,-25.78 -41.652,-61.246 -41.652,-100.564 0,-38.846 15.742,-73.764 41.022,-99.423 0.999,0.12 1.99,0.305 3.028,0.305 h 118.527 v 81.061 c 0,8.908 7.213,16.131 16.122,16.131 h 36.503 c 8.908,0 16.122,-7.223 16.122,-16.131 v -81.061 h 9.482 c 0.908,0 1.768,-0.176 2.658,-0.268 25.26,25.659 40.984,60.56 40.984,99.386 -0.019,39.318 -15.89,74.783 -41.661,100.564 z"
      fill="#000000"
    />
    <circle
      cx="206.422"
      cy="107.091"
      r="15.408"
      fill="#000000"
    />
    <circle
      cx="300.05899"
      cy="107.091"
      r="15.408"
      fill="#000000"
    />
    <path
      d="m 210.747,158.114 c -0.056,-0.186 0,-0.371 -0.046,-0.556 -0.056,-0.186 -0.194,-0.324 -0.241,-0.509 z"
      fill="#000000"
    />
    <path
      d="m 210.701,157.558 c 1.62,4.972 6.528,8.148 11.769,7.352 l 37.29,-5.668 c 0,0 8.889,-17.779 -8.89,-26.076 l -33.392,12.057 c -5.065,1.833 -7.879,7.112 -6.777,12.335 z"
      fill="#000000"
    />
  </g>
  <circle
    cx="105.56024"
    cy="149.57349"
    r="92.678314"
    fill="none"
    stroke="#ff0600"
    stroke-width="8"
    stroke-opacity="0.957"
  />
</svg>
