<?xml version="1.0" encoding="utf-8"?>

<!DOCTYPE svg PUBLIC "-//W3C//DTD SVG 1.1//EN" "http://www.w3.org/Graphics/SVG/1.1/DTD/svg11.dtd">
<!-- Uploaded to: SVG Repo, www.svgrepo.com, Generator: SVG Repo Mixer Tools -->
<svg height="800px" width="800px" version="1.1" id="_x32_" xmlns="http://www.w3.org/2000/svg" xmlns:xlink="http://www.w3.org/1999/xlink" 
	 viewBox="0 0 512 512"  xml:space="preserve">
<style type="text/css">
	.st0{fill:#000000;}
</style>
<g>
	<path class="st0" d="M379.408,223.71c0.74-2.408,1.259-4.916,1.259-7.574c0-4.918-1.445-9.463-3.816-13.39
		c10.52-19.436,16.631-41.642,16.631-65.264C393.464,61.551,331.931,0.008,255.991,0c-75.932,0.008-137.473,61.551-137.473,137.482
		c-0.01,23.78,6.167,46.124,16.835,65.653c-2.232,3.834-3.602,8.241-3.602,13.001c0,2.537,0.472,4.945,1.158,7.26
		c-29.391,30.595-47.587,72.117-47.578,117.934c0,94.266,76.394,170.662,170.66,170.67c94.266-0.008,170.661-76.404,170.679-170.67
		C426.67,295.679,408.613,254.286,379.408,223.71z M178.893,60.384c19.779-19.761,46.947-31.928,77.098-31.937
		c30.16,0.009,57.328,12.176,77.098,31.937c19.761,19.78,31.928,46.948,31.946,77.098c0,19.122-4.982,36.984-13.63,52.578h-190.81
		c-8.649-15.594-13.631-33.456-13.631-52.578C146.964,107.332,159.141,80.163,178.893,60.384z M356.563,441.894
		c-25.789,25.761-61.255,41.651-100.573,41.66c-39.317-0.009-74.783-15.899-100.562-41.66
		c-25.761-25.78-41.652-61.246-41.652-100.564c0-38.846,15.742-73.764,41.022-99.423c0.999,0.12,1.99,0.305,3.028,0.305h118.527
		v81.061c0,8.908,7.213,16.131,16.122,16.131h36.503c8.908,0,16.122-7.223,16.122-16.131v-81.061h9.482
		c0.908,0,1.768-0.176,2.658-0.268c25.26,25.659,40.984,60.56,40.984,99.386C398.205,380.648,382.334,416.113,356.563,441.894z"/>
	<circle class="st0" cx="206.422" cy="107.091" r="15.408"/>
	<circle class="st0" cx="300.059" cy="107.091" r="15.408"/>
	<path class="st0" d="M210.747,158.114c-0.056-0.186,0-0.371-0.046-0.556c-0.056-0.186-0.194-0.324-0.241-0.509L210.747,158.114z"/>
	<path class="st0" d="M210.701,157.558c1.62,4.972,6.528,8.148,11.769,7.352l37.29-5.668c0,0,8.889-17.779-8.89-26.076
		l-33.392,12.057C212.413,147.056,209.599,152.335,210.701,157.558z"/>
</g>
</svg>