<svg
   width="210mm"
   height="297mm"
   viewBox="0 0 210 297"
   xmlns="http://www.w3.org/2000/svg">
  <g transform="matrix(1.8434792,0,0,1.8434792,22.111885,70.305823)">
    <path
      d="M 45,68 C 32.318,68 22,57.683 22,45 22,32.318 32.318,22 45,22 57.683,22 68,32.318 68,45 68,57.683 57.683,68 45,68 Z"
      style="fill:#000000;"
    />
    <path
      d="m 38.652,17.61 c -0.292,0 -0.573,-0.127 -0.765,-0.356 -0.239,-0.284 -0.301,-0.677 -0.161,-1.021 L 44.074,0.623 C 44.227,0.247 44.593,0 45,0 c 0.407,0 0.773,0.247 0.926,0.623 l 6.349,15.61 c 0.14,0.344 0.077,0.737 -0.162,1.021 -0.238,0.284 -0.616,0.414 -0.978,0.333 -4.045,-0.881 -8.228,-0.881 -12.271,0 -0.07,0.016 -0.141,0.023 -0.212,0.023 z"
      style="fill:#000000;"
    />
    <path
      d="m 45,90 c -0.407,0 -0.773,-0.246 -0.926,-0.623 l -6.348,-15.61 c -0.14,-0.344 -0.078,-0.737 0.161,-1.021 0.239,-0.284 0.615,-0.412 0.978,-0.333 4.043,0.882 8.226,0.882 12.271,0 0.363,-0.08 0.74,0.05 0.978,0.333 0.239,0.283 0.302,0.677 0.162,1.021 l -6.349,15.61 C 45.773,89.754 45.407,90 45,90 Z"
      style="fill:#000000;"
    />
    <path
      d="m 16.61,52.349 c -0.127,0 -0.255,-0.024 -0.377,-0.073 L 0.623,45.927 C 0.247,45.773 0,45.407 0,45 0,44.593 0.247,44.227 0.624,44.074 l 15.61,-6.348 c 0.343,-0.14 0.737,-0.078 1.021,0.161 0.284,0.239 0.412,0.616 0.333,0.978 -0.441,2.021 -0.665,4.086 -0.665,6.135 0,2.049 0.224,4.113 0.665,6.136 0.079,0.362 -0.049,0.739 -0.333,0.978 -0.184,0.155 -0.413,0.235 -0.645,0.235 z"
      style="fill:#000000;"
    />
    <path
      d="m 73.39,52.349 c -0.231,0 -0.461,-0.08 -0.644,-0.235 -0.284,-0.238 -0.412,-0.615 -0.333,-0.978 0.44,-2.022 0.664,-4.087 0.664,-6.136 0,-2.049 -0.224,-4.114 -0.664,-6.135 -0.079,-0.362 0.049,-0.739 0.333,-0.978 0.283,-0.239 0.676,-0.301 1.021,-0.161 l 15.61,6.348 C 89.754,44.227 90,44.593 90,45 c 0,0.407 -0.246,0.773 -0.623,0.926 l -15.61,6.349 c -0.122,0.049 -0.25,0.074 -0.377,0.074 z"
      style="fill:#000000;"
    />
    <path
      d="m 20.437,30.415 c -0.028,0 -0.057,-10e-4 -0.085,-0.004 -0.37,-0.032 -0.692,-0.266 -0.836,-0.607 L 12.967,14.277 c -0.158,-0.375 -0.073,-0.808 0.214,-1.096 0.288,-0.288 0.722,-0.371 1.096,-0.214 l 15.527,6.549 c 0.342,0.144 0.576,0.466 0.607,0.835 0.032,0.37 -0.144,0.727 -0.456,0.927 -1.743,1.119 -3.36,2.42 -4.809,3.868 -1.448,1.449 -2.75,3.066 -3.868,4.809 -0.185,0.288 -0.503,0.46 -0.841,0.46 z"
      style="fill:#000000;"
    />
  </g>
  <circle
    cx="105.44052"
    cy="154.02045"
    r="91.087357"
    style="fill:#ff0000;fill-opacity:0;stroke:#ff0600;stroke-width:8;"
  />
</svg>
