<svg
  width="210mm"
  height="297mm"
  viewBox="0 0 210 297"
  xmlns="http://www.w3.org/2000/svg"
>
  <g transform="matrix(8.8194444,0,0,8.8194444,-1.0583328,38.188195)">
    <path
      fillRule="evenodd"
      clipRule="evenodd"
      d="m 12,2 c 0.5523,0 1,0.44772 1,1 v 0.03926 c 2.5085,0.19737 4.8896,1.13369 6.7187,2.68839 C 21.7944,7.49198 23,9.92314 23,12.5 c 0,0.5377 -0.4252,0.9792 -0.9625,0.9993 -0.5374,0.0201 -0.9944,-0.3882 -1.0347,-0.9244 -0.0306,-0.4074 -0.2562,-0.8297 -0.7074,-1.1517 -0.4568,-0.326 -1.0898,-0.5039 -1.7621,-0.4535 -0.6724,0.0504 -1.2717,0.3208 -1.6747,0.7113 -0.3544,0.3434 -0.5201,0.7388 -0.5305,1.1089 0.0039,0.0697 0.0059,0.1398 0.0059,0.2101 0,0.5377 -0.4252,0.9792 -0.9625,0.9993 -0.5374,0.0201 -0.9944,-0.3882 -1.0347,-0.9244 C 14.3312,13.0004 14.3281,12.9261 14.3275,12.8521 14.2886,12.4073 14.0741,11.9687 13.6888,11.6219 13.4915,11.4444 13.2578,11.2992 13,11.1938 V 20 c 0,0.2652 0.1054,0.5196 0.2929,0.7071 C 13.4804,20.8946 13.7348,21 14,21 14.2652,21 14.5196,20.8946 14.7071,20.7071 14.8946,20.5196 15,20.2652 15,20 v -1 c 0,-0.5523 0.4477,-1 1,-1 0.5523,0 1,0.4477 1,1 v 1 c 0,0.7957 -0.3161,1.5587 -0.8787,2.1213 C 15.5587,22.6839 14.7957,23 14,23 13.2043,23 12.4413,22.6839 11.8787,22.1213 11.3161,21.5587 11,20.7957 11,20 v -8.8054 c -0.257,0.1053 -0.49,0.2502 -0.6868,0.4273 -0.38526,0.3468 -0.59979,0.7854 -0.63873,1.2302 -6.1e-4,0.074 -0.00368,0.1483 -0.00928,0.2228 C 9.62494,13.6111 9.16787,14.0194 8.63054,13.9993 8.09321,13.9792 7.668,13.5377 7.668,13 7.668,12.9297 7.66999,12.8597 7.67394,12.79 7.66353,12.4198 7.49782,12.0244 7.14337,11.681 6.7404,11.2905 6.14107,11.0201 5.46874,10.9697 4.79641,10.9193 4.16339,11.0972 3.70658,11.4232 3.25539,11.7452 3.02978,12.1675 2.99919,12.5749 2.96002,13.0966 2.52524,13.5 2.002,13.5 H 2 C 1.73478,13.5 1.48043,13.3946 1.29289,13.2071 1.10536,13.0196 1,12.7652 1,12.5 1,9.92314 2.2056,7.49198 4.28128,5.72765 6.11035,4.17295 8.49152,3.23663 11,3.03926 V 3 C 11,2.44772 11.4477,2 12,2 Z M 8.69699,10.4107 C 8.78482,10.3151 8.87764,10.2232 8.97521,10.1354 9.793,9.39933 10.8814,9.0009 11.9972,9 11.9982,9 11.9991,9 12,9 c 3e-4,0 7e-4,0 10e-4,0 1.1172,0 2.2071,0.3985 3.0258,1.1354 0.0976,0.0878 0.1904,0.1797 0.2782,0.2753 0.0522,-0.0567 0.1061,-0.1121 0.1619,-0.1661 0.7689,-0.74503 1.8212,-1.18711 2.9168,-1.26928 0.5593,-0.04195 1.1214,0.01052 1.6536,0.15469 C 19.6251,8.44842 19.0845,7.81344 18.4234,7.25153 16.7434,5.82354 14.4347,5 12,5 9.56527,5 7.25657,5.82354 5.57658,7.25153 4.9153,7.81362 4.37457,8.44882 3.96228,9.13066 4.49524,8.986 5.0582,8.9333 5.61833,8.97532 c 1.09561,0.08217 2.14786,0.52425 2.91679,1.26928 0.05573,0.054 0.10971,0.1094 0.16187,0.1661 z"
      fill="#000000"
    />
  </g>
  <circle
    cx="105.44052"
    cy="154.02045"
    r="91.087357"
    style="fill:#ff0000;fill-opacity:0;stroke:#ff0600;stroke-width:8;"
  />
</svg>
